<svg xmlns="http://www.w3.org/2000/svg" width="40" height="40" viewBox="0 0 40 40">
  <path id="Subtraction_14" data-name="Subtraction 14" d="M20,40A20.005,20.005,0,0,1,12.215,1.572a20.005,20.005,0,0,1,15.57,36.856A19.875,19.875,0,0,1,20,40ZM10.591,18.811a2.138,2.138,0,0,0-.8.155A2.011,2.011,0,0,0,8.5,20.827a1.958,1.958,0,0,0,.611,1.428l6.169,5.985a2.14,2.14,0,0,0,2.952,0l8.351-8.074.051-.049.019-.022.019-.022,5.266-5.181.052-.049a1.977,1.977,0,0,0-.131-2.775,2.146,2.146,0,0,0-2.874-.029l-5.8,5.7L16.76,23.959l-4.7-4.559A2.111,2.111,0,0,0,10.591,18.811Z" fill="#21a371"/>
</svg>
